<svg height="511pt" viewBox="0 -16 511.99994 511" width="511pt" xmlns="http://www.w3.org/2000/svg"><path d="m481.128906 428.378906c-1.429687-.824218-2.859375-1.597656-4.289062-2.335937 48.71875-70.40625 45.789062-267.632813-2.46875-339.726563 2.25-1.082031 4.507812-2.273437 6.757812-3.570312 24.21875-13.953125 29.566406-29.785156 22.761719-41.59375s-23.179687-15.121094-47.402344-1.164063c-8.503906 4.898438-15.753906 10.65625-21.300781 16.570313-52.835938-19.375-150.90625-19.375-203.742188 0-5.546874-5.914063-12.796874-11.667969-21.300781-16.570313-24.21875-13.957031-40.597656-10.644531-47.402343 1.164063-6.804688 11.808594-1.457032 27.640625 22.765624 41.59375 2.246094 1.296875 4.503907 2.488281 6.753907 3.570312-48.253907 72.09375-51.1875 269.320313-2.46875 339.726563-1.429688.738281-2.859375 1.511719-4.285157 2.335937-24.222656 13.957032-29.570312 29.785156-22.765624 41.59375 6.804687 11.808594 23.183593 15.121094 47.402343 1.164063 8.199219-4.722657 15.238281-10.246094 20.699219-15.9375 54.042969 18.527343 150.902344 18.527343 204.941406 0 5.464844 5.691406 12.503906 11.214843 20.703125 15.9375 24.21875 13.957031 40.597657 10.644531 47.402344-1.164063s1.457031-27.636718-22.761719-41.59375zm0 0" fill="#eab875"/><path d="m481.128906 428.378906c-1.429687-.824218-2.859375-1.597656-4.289062-2.335937 48.71875-70.40625 45.789062-267.632813-2.46875-339.726563 2.25-1.082031 4.507812-2.273437 6.757812-3.570312 24.21875-13.953125 29.566406-29.785156 22.761719-41.59375-5.46875-9.488282-17.125-13.480469-34.058594-7.445313 3.132813 1.773438 5.625 4.304688 7.433594 7.445313 6.804687 11.808594 1.457031 27.640625-22.761719 41.59375-2.25 1.296875-4.507812 2.488281-6.757812 3.570312 48.257812 72.09375 51.1875 269.320313 2.46875 339.726563 1.429687.738281 2.859375 1.511719 4.289062 2.335937 24.21875 13.957032 29.566406 29.785156 22.761719 41.59375-1.808594 3.140625-4.300781 5.671875-7.433594 7.445313 16.933594 6.039062 28.589844 2.042969 34.058594-7.445313 6.804687-11.808594 1.457031-27.636718-22.761719-41.59375zm0 0" fill="#c68d4e"/><path d="m104.871094 72.84375 75.597656 207.695312-42.082031 15.316407-75.59375-207.695313c7.445312.148438 15.042969-1.050781 22.460937-3.75 7.417969-2.699218 14.011719-6.664062 19.617188-11.566406zm0 0" fill="#ea6789"/><path d="m180.46875 280.539062-75.597656-207.695312c-5.460938 4.773438-11.859375 8.648438-19.042969 11.34375l74.179687 203.800781-21.621093 7.867188zm0 0" fill="#c7416a"/><path d="m64.03125 95.675781c-.460938 0-.921875-.007812-1.386719-.015625-23.753906-.480468-46.078125-13.417968-58.257812-33.761718-2.683594-4.476563-3.214844-9.863282-1.472657-14.785157 1.75-4.925781 5.570313-8.773437 10.476563-10.5625l96.148437-34.996093c4.910157-1.785157 10.3125-1.289063 14.816407 1.359374 4.5 2.644532 7.554687 7.117188 8.378906 12.269532 3.746094 23.414062-5.039063 47.675781-22.925781 63.308594-6.460938 5.648437-13.859375 10.007812-21.992188 12.96875-7.6875 2.796874-15.683594 4.214843-23.785156 4.214843zm50.640625-80.023437-96.148437 34.992187c-.945313.34375-1.328126 1.078125-1.472657 1.484375s-.308593 1.210938.203125 2.066406c9.550782 15.949219 27.058594 26.089844 45.691406 26.46875 6.714844.128907 13.359376-.976562 19.746094-3.300781 6.382813-2.324219 12.1875-5.742187 17.246094-10.164062 14.03125-12.265625 20.921875-31.289063 17.988281-49.648438-.160156-.980469-.804687-1.492187-1.171875-1.710937-.375-.214844-1.140625-.53125-2.082031-.1875zm0 0" fill="#1b223a"/><path d="m240.285156 179.789062v45.230469c0 15.386719 12.472656 27.863281 27.859375 27.863281h130.339844c15.386719 0 27.863281-12.476562 27.863281-27.863281v-45.230469c0-15.386718-12.476562-27.863281-27.863281-27.863281h-130.339844c-15.386719 0-27.859375 12.476563-27.859375 27.863281zm0 0" fill="#f0f2dc"/><path d="m337.710938 427.460938c0-39.140626-27.878907-71.75-64.863282-79.085938-2.023437-51.917969-45.042968-93.3125-97.601562-92.675781-50.660156.613281-92.742188 41.113281-95.195313 91.71875-.488281 10.089843.582031 19.859375 2.980469 29.09375-22.390625 6.128906-38.859375 26.613281-38.863281 50.945312h-14.660157c-16.296874.003907-29.507812 13.214844-29.507812 29.511719v19.90625c0 1.886719 1.527344 3.414062 3.410156 3.414062h380.414063c1.882812 0 3.410156-1.527343 3.410156-3.414062v-19.90625c0-16.296875-13.210937-29.507812-29.507813-29.507812zm0 0" fill="#aabfd5"/><g fill="#7d8eb0"><path d="m357.726562 427.460938h-20.015624c0-39.140626-27.878907-71.75-64.863282-79.085938-2.023437-51.917969-45.042968-93.3125-97.601562-92.675781-3.96875.050781-7.875.371093-11.722656.890625 45.804687 6.277344 81.355468 44.703125 83.195312 91.785156 36.980469 7.335938 64.859375 39.945312 64.859375 79.085938h20.015625c16.296875 0 29.507812 13.210937 29.507812 29.507812v19.90625c0 1.886719-1.527343 3.414062-3.410156 3.414062h26.132813c1.882812 0 3.410156-1.527343 3.410156-3.414062v-19.90625c0-16.296875-13.210937-29.507812-29.507813-29.507812zm0 0"/><path d="m275.769531 422.097656c-4.140625 0-7.5-3.355468-7.5-7.5 0-10.808594-8.792969-19.601562-19.601562-19.601562-3.929688 0-7.71875 1.15625-10.953125 3.34375-3.433594 2.320312-8.097656 1.414062-10.414063-2.015625-2.320312-3.433594-1.417969-8.097657 2.011719-10.414063 5.726562-3.871094 12.417969-5.914062 19.355469-5.914062 19.078125 0 34.601562 15.519531 34.601562 34.601562 0 4.144532-3.359375 7.5-7.5 7.5zm0 0"/><path d="m105.050781 427.085938c-1.578125 0-3.167969-.492188-4.523437-1.519532-3.300782-2.503906-3.949219-7.207031-1.449219-10.507812 6.234375-8.230469 15.730469-12.949219 26.042969-12.949219 7.980468 0 15.660156 2.910156 21.632812 8.191406 3.101563 2.742188 3.394532 7.484375.648438 10.585938-2.746094 3.105469-7.484375 3.394531-10.585938.648437-3.226562-2.855468-7.382812-4.425781-11.695312-4.425781-5.578125 0-10.710938 2.554687-14.085938 7.007813-1.476562 1.945312-3.71875 2.96875-5.984375 2.96875zm0 0"/><path d="m149.734375 336.257812c-1.039063 0-2.09375-.214843-3.097656-.671874-3.773438-1.714844-5.441407-6.160157-3.730469-9.929688 1.722656-3.792969 4.160156-7.15625 7.242188-9.996094 12.597656-11.605468 32.289062-10.796875 43.898437 1.800782 2.804687 3.046874 2.613281 7.789062-.433594 10.597656-3.046875 2.804687-7.792969 2.609375-10.597656-.433594-6.003906-6.515625-16.191406-6.9375-22.707031-.929688-1.59375 1.46875-2.855469 3.207032-3.742188 5.160157-1.253906 2.765625-3.980468 4.402343-6.832031 4.402343zm0 0"/></g></svg>