<?xml version="1.0" encoding="iso-8859-1"?>
<!-- Generator: Adobe Illustrator 19.0.0, SVG Export Plug-In . SVG Version: 6.00 Build 0)  -->
<svg version="1.1" id="Layer_1" xmlns="http://www.w3.org/2000/svg" xmlns:xlink="http://www.w3.org/1999/xlink" x="0px" y="0px"
	 viewBox="0 0 511.991 511.991" style="enable-background:new 0 0 511.991 511.991;" xml:space="preserve">
<polygon style="fill:#ED5564;" points="426.65,90.657 85.332,90.657 10.662,389.32 71.739,367.994 133.331,389.32 194.658,367.994 
	255.999,389.32 317.325,367.994 378.651,389.32 439.994,367.994 501.32,389.32 "/>
<g>
	<polygon style="fill:#656D78;" points="511.664,386.726 493.008,312.073 493.008,312.073 	"/>
	<path style="fill:#656D78;" d="M511.976,389.086c0.078,3.031-1.156,6-3.453,8.109c-2.906,2.641-7,3.484-10.703,2.203
		l-57.826-20.107l-57.827,20.107c-0.016,0-0.016,0-0.031,0c-0.109,0.047-0.219,0.062-0.328,0.109
		c-0.203,0.062-0.422,0.125-0.641,0.172c-0.109,0.031-0.234,0.047-0.344,0.078c-0.219,0.047-0.453,0.078-0.672,0.109
		c-0.062,0.016-0.109,0.031-0.172,0.031c-0.094,0.016-0.188,0.031-0.281,0.031c-0.078,0.016-0.172,0.016-0.25,0.031
		c-0.266,0.016-0.531,0.031-0.812,0.031c-0.125,0-0.266-0.016-0.391-0.016c-0.172-0.016-0.344-0.016-0.5-0.031
		c-0.188-0.016-0.375-0.047-0.562-0.062c-0.109-0.016-0.234-0.031-0.359-0.062c-0.188-0.031-0.375-0.062-0.547-0.109
		c-0.125-0.031-0.234-0.047-0.344-0.078c-0.187-0.047-0.358-0.109-0.546-0.172c-0.078-0.016-0.156-0.031-0.234-0.062l-57.827-20.107
		L259.5,399.398c-0.047,0.016-0.094,0.031-0.141,0.047c-0.156,0.047-0.312,0.094-0.469,0.141c-0.172,0.047-0.328,0.078-0.5,0.125
		c-0.141,0.031-0.297,0.062-0.438,0.094c-0.203,0.031-0.391,0.062-0.594,0.094c-0.125,0.016-0.25,0.031-0.375,0.047
		c-0.656,0.047-1.328,0.047-1.984,0c-0.125-0.016-0.25-0.031-0.375-0.047c-0.188-0.031-0.391-0.062-0.594-0.094
		c-0.141-0.031-0.297-0.062-0.438-0.094c-0.172-0.047-0.328-0.078-0.5-0.125c-0.156-0.047-0.312-0.094-0.469-0.141
		c-0.031-0.016-0.094-0.031-0.141-0.047l-57.826-20.107l-57.827,20.107c-0.078,0.031-0.156,0.047-0.234,0.078
		c-0.188,0.047-0.359,0.109-0.531,0.156c-0.109,0.031-0.234,0.047-0.344,0.078c-0.188,0.047-0.375,0.078-0.562,0.109
		c-0.109,0.031-0.234,0.047-0.344,0.062c-0.188,0.016-0.375,0.047-0.562,0.062c-0.156,0.016-0.328,0.016-0.484,0.031
		c-0.141,0-0.281,0.016-0.422,0.016c-0.266,0-0.531-0.016-0.812-0.031c-0.078-0.016-0.156-0.016-0.234-0.031
		c-0.094,0-0.188-0.016-0.297-0.031c-0.047,0-0.109-0.016-0.172-0.031c-0.219-0.031-0.438-0.062-0.656-0.109
		c-0.125-0.031-0.234-0.047-0.359-0.078c-0.219-0.047-0.438-0.109-0.656-0.188c-0.094-0.031-0.203-0.047-0.297-0.094
		c-0.016,0-0.016,0-0.016,0L71.755,379.29l-57.577,20.107c-1.141,0.391-2.328,0.594-3.516,0.594c-2.609,0-5.187-0.969-7.187-2.797
		c-2.297-2.094-3.531-5.062-3.469-8.109c0,0.078,0,0.156,0,0.234v32c0,3.452,1.672,6.702,4.484,8.702c2.828,2,6.437,2.5,9.687,1.375
		l57.577-20.108l58.092,20.108c2.266,0.781,4.718,0.781,6.984,0l57.827-20.108l57.826,20.108c2.281,0.781,4.75,0.781,7.015,0
		l57.826-20.108l57.827,20.108c2.265,0.781,4.733,0.781,7.015,0l57.827-20.108l57.826,20.108c1.141,0.391,2.328,0.594,3.5,0.594
		c2.188,0,4.359-0.672,6.172-1.984c2.828-2,4.5-5.234,4.5-8.687v-32C511.992,389.242,511.976,389.164,511.976,389.086z"/>
	<path style="fill:#656D78;" d="M511.664,386.726c0.062,0.234,0.109,0.453,0.156,0.688
		C511.773,387.18,511.726,386.961,511.664,386.726z"/>
	<path style="fill:#656D78;" d="M0.178,387.414c0.031-0.234,0.078-0.453,0.141-0.688C0.256,386.961,0.209,387.18,0.178,387.414z"/>
	<path style="fill:#656D78;" d="M511.976,388.773c-0.016-0.125-0.031-0.266-0.031-0.391
		C511.945,388.508,511.961,388.648,511.976,388.773z"/>
	<path style="fill:#656D78;" d="M511.914,388.101c-0.016-0.156-0.047-0.297-0.062-0.453
		C511.867,387.805,511.898,387.945,511.914,388.101z"/>
	<path style="fill:#656D78;" d="M0.069,388.101c0.016-0.156,0.047-0.297,0.062-0.453C0.116,387.805,0.084,387.945,0.069,388.101z"/>
	<path style="fill:#656D78;" d="M0.022,388.773c0-0.125,0.016-0.266,0.031-0.391C0.038,388.508,0.022,388.648,0.022,388.773z"/>
</g>
<path style="fill:#DA4453;" d="M511.664,386.726l-26.688-106.73c0-0.016,0-0.016,0-0.031L437.01,88.079
	c-1.188-4.75-5.453-8.078-10.359-8.078H85.332c-4.891,0-9.156,3.328-10.343,8.078L27.006,279.965c0,0.016,0,0.016,0,0.031
	L0.319,386.726c-0.953,3.812,0.266,7.828,3.156,10.469c2,1.828,4.578,2.797,7.187,2.797c1.188,0,2.375-0.203,3.516-0.594
	l57.577-20.107l58.092,20.107c0,0,0,0,0.016,0c0.094,0.047,0.203,0.062,0.297,0.094c0.219,0.078,0.438,0.141,0.656,0.188
	c0.125,0.031,0.234,0.047,0.359,0.078c0.219,0.047,0.438,0.078,0.656,0.109c0.062,0.016,0.125,0.031,0.172,0.031
	c0.109,0.016,0.203,0.031,0.297,0.031c0.078,0.016,0.156,0.016,0.234,0.031c0.281,0.016,0.547,0.031,0.812,0.031
	c0.141,0,0.281-0.016,0.422-0.016c0.156-0.016,0.328-0.016,0.484-0.031c0.188-0.016,0.375-0.047,0.562-0.062
	c0.109-0.016,0.234-0.031,0.344-0.062c0.188-0.031,0.375-0.062,0.562-0.109c0.109-0.031,0.234-0.047,0.344-0.078
	c0.172-0.047,0.344-0.109,0.531-0.156c0.078-0.031,0.156-0.047,0.234-0.078l57.827-20.107l57.826,20.107
	c0.047,0.016,0.109,0.031,0.141,0.047c0.156,0.047,0.312,0.094,0.469,0.141c0.172,0.047,0.328,0.078,0.5,0.125
	c0.141,0.031,0.297,0.062,0.438,0.094c0.203,0.031,0.406,0.062,0.594,0.094c0.125,0.016,0.25,0.031,0.375,0.047
	c0.656,0.047,1.328,0.047,1.984,0c0.125-0.016,0.25-0.031,0.375-0.047c0.203-0.031,0.391-0.062,0.594-0.094
	c0.141-0.031,0.297-0.062,0.438-0.094c0.172-0.047,0.328-0.078,0.5-0.125c0.156-0.047,0.312-0.094,0.469-0.141
	c0.047-0.016,0.094-0.031,0.141-0.047l57.826-20.107l57.827,20.107c0.078,0.031,0.156,0.047,0.234,0.062
	c0.188,0.062,0.359,0.125,0.546,0.172c0.109,0.031,0.219,0.047,0.344,0.078c0.172,0.047,0.359,0.078,0.547,0.109
	c0.125,0.031,0.25,0.047,0.359,0.062c0.188,0.016,0.375,0.047,0.562,0.062c0.156,0.016,0.328,0.016,0.5,0.031
	c0.125,0,0.266,0.016,0.391,0.016c0.281,0,0.547-0.016,0.812-0.031c0.078-0.016,0.172-0.016,0.25-0.031
	c0.094,0,0.188-0.016,0.281-0.031c0.062,0,0.109-0.016,0.172-0.031c0.219-0.031,0.453-0.062,0.672-0.109
	c0.109-0.031,0.234-0.047,0.344-0.078c0.219-0.047,0.438-0.109,0.641-0.172c0.109-0.047,0.219-0.062,0.328-0.109
	c0.016,0,0.016,0,0.031,0l57.827-20.107l57.826,20.107c3.703,1.281,7.797,0.438,10.703-2.203
	C511.414,394.555,512.617,390.539,511.664,386.726z M70.27,194.873l40.186-13.796l36.562,12.812l-9.312,74.389l-42.858-14.78
	c-2.281-0.797-4.75-0.781-7.031,0.016l-35.328,12.482L70.27,194.873z M245.328,101.328v70.327l-34.327-11.938
	c-2.266-0.781-4.719-0.797-6.984-0.016l-32.639,11.281l8.703-69.655h65.247V101.328z M331.903,101.328l8.719,69.655l-32.641-11.281
	c-2.266-0.781-4.734-0.766-7,0.016l-34.326,11.938v-70.327L331.903,101.328L331.903,101.328z M168.424,194.576l39.061-13.499
	l37.843,13.171v73.404l-40.702-14.155c-2.281-0.797-4.75-0.797-7.031,0.016l-38.217,13.39L168.424,194.576z M266.655,194.248
	l37.842-13.171l39.062,13.499l9.047,72.295l-38.219-13.374c-2.281-0.797-4.75-0.797-7.031,0l-40.701,14.155L266.655,194.248
	L266.655,194.248z M364.98,193.889l36.545-12.812l40.188,13.796l17.78,71.123l-35.327-12.483c-2.281-0.797-4.766-0.812-7.047-0.016
	l-42.842,14.812L364.98,193.889z M435.541,170.202l-30.594-10.5c-2.266-0.781-4.719-0.766-6.984,0.016l-35.686,12.516l-8.874-70.905
	h64.919L435.541,170.202z M93.66,101.328h64.92l-8.859,70.905l-35.703-12.516c-2.25-0.781-4.718-0.797-6.984-0.016l-30.593,10.5
	L93.66,101.328z M71.739,357.322c-1.187,0-2.375,0.203-3.515,0.594l-42.421,14.812l20.484-81.92l45.124-15.938l43.592,15.047
	l-10.625,85.014l-49.14-17.016C74.098,357.525,72.926,357.322,71.739,357.322z M191.158,357.916l-45.108,15.688l10.375-83.061
	l44.702-15.672l44.202,15.375v84.076l-47.155-16.406C195.892,357.119,193.423,357.119,191.158,357.916z M313.825,357.916
	l-47.17,16.406v-84.076l44.201-15.375l44.703,15.625l10.39,83.107l-45.124-15.688C318.559,357.119,316.091,357.119,313.825,357.916z
	 M443.494,357.916c-2.266-0.797-4.734-0.797-7.016,0l-48.874,17l-10.625-84.967l43.593-15.078l45.123,15.938l20.484,81.951
	L443.494,357.916z"/>
<g>
</g>
<g>
</g>
<g>
</g>
<g>
</g>
<g>
</g>
<g>
</g>
<g>
</g>
<g>
</g>
<g>
</g>
<g>
</g>
<g>
</g>
<g>
</g>
<g>
</g>
<g>
</g>
<g>
</g>
</svg>
