<svg height="511pt" viewBox="0 -29 511.99943 511" width="511pt" xmlns="http://www.w3.org/2000/svg"><path d="m480.027344 246.691406h-55.285156s-15.96875 41.09375-38.894532 56.652344c.410156.820312 29.90625 24.5625 66.535156 24.5625 20.308594 0 38.421876-7.296875 50.605469-13.9375 7.914063-4.316406 9.785157-14.839844 3.839844-21.617188-16.253906-18.515624-26.800781-45.660156-26.800781-45.660156zm0 0" fill="#6f8e66"/><path d="m444.371094 216.621094c-6.660156 7.789062-17.660156 18.789062-33.644532 29.253906-6.484374 4.242188-4.339843 14.226562 3.328126 15.347656 9.367187 1.367188 17.953124 2.550782 17.953124 2.550782l13.886719 16.976562c3.355469 4.097656 9.625 4.097656 12.980469 0l13.886719-16.976562s8.585937-1.183594 17.953125-2.550782c7.667968-1.121094 9.8125-11.105468 3.332031-15.347656-15.988281-10.464844-26.984375-21.464844-33.648437-29.25-4.222657-4.9375-11.804688-4.9375-16.027344-.003906zm0 0" fill="#80a078"/><path d="m404.933594 198.742188h-70.488282s-20.355468 52.398437-49.589843 72.234374c.523437 1.042969 38.128906 31.316407 84.835937 31.316407 25.890625 0 48.988282-9.304688 64.519532-17.773438 10.089843-5.503906 12.476562-18.921875 4.898437-27.558593-20.726563-23.609376-34.175781-58.21875-34.175781-58.21875zm0 0" fill="#93b58c"/><path d="m359.476562 160.40625c-8.496093 9.929688-22.519531 23.953125-42.902343 37.296875-8.269531 5.410156-5.53125 18.140625 4.246093 19.566406 11.941407 1.742188 22.890626 3.253907 22.890626 3.253907l17.707031 21.640624c4.277343 5.230469 12.269531 5.230469 16.546875 0l17.707031-21.640624s10.945313-1.511719 22.886719-3.253907c9.777344-1.425781 12.515625-14.15625 4.25-19.566406-20.386719-13.34375-34.40625-27.367187-42.902344-37.296875-5.382812-6.292969-15.050781-6.292969-20.429688 0zm0 0" fill="#a8c6a3"/><path d="m206.582031 189.40625 42.007813-44.699219c11.460937-12.199219 31.445312-9.871093 39.796875 4.632813l89.4375 155.296875-171.242188-47.4375zm0 0" fill="#61a5ce"/><path d="m242.242188 204.097656 13.34375-7.917968c5.753906-3.417969 12.914062-3.417969 18.667968-.003907l13.347656 7.921875c5.753907 3.414063 12.914063 3.414063 18.667969 0l10.175781-6.039062-28.058593-48.71875c-8.351563-14.503906-28.335938-16.832032-39.796875-4.632813l-42.007813 44.699219 16.992188 14.691406c5.753906 3.414063 12.914062 3.414063 18.667969 0zm0 0" fill="#abebf4"/><path d="m32.777344 216.191406 80.515625-133.984375c13.117187-21.824219 45.269531-20.1875 56.101562 2.855469l98.882813 210.402344zm0 0" fill="#7ac1dd"/><path d="m53.859375 255.007812v107.246094c0 12.238282 10.015625 22.253906 22.253906 22.253906s22.253907-10.015624 22.253907-22.253906v-26.347656c0-9.640625 7.886718-17.53125 17.527343-17.53125s17.527344 7.890625 17.527344 17.53125v8.160156c0 12.242188 10.015625 22.253906 22.253906 22.253906 12.242188 0 22.253907-10.011718 22.253907-22.253906v-61.511718zm0 0" fill="#abebf4"/><path d="m155.867188 453.488281c-12.136719 0-22.066407-9.929687-22.066407-22.0625v-17.265625c0-12.136718 9.929688-22.0625 22.066407-22.0625 12.132812 0 22.0625 9.925782 22.0625 22.0625v17.265625c0 12.132813-9.929688 22.0625-22.0625 22.0625zm0 0" fill="#abebf4"/><g fill="#ccf8ff"><path d="m472.917969 385.421875-450.589844-127.820313c-16.3125-4.625-25.78125-21.597656-21.15625-37.90625 4.628906-16.308593 21.601563-25.78125 37.910156-21.152343l450.589844 127.820312c16.3125 4.625 25.78125 21.597657 21.15625 37.90625-4.628906 16.308594-21.597656 25.78125-37.910156 21.152344zm0 0"/><path d="m343.679688 32.714844c-4.503907-4.257813-10.035157-6.542969-15.636719-6.988282-4.300781-.339843-8.113281-2.859374-10.324219-6.558593-6.675781-11.179688-18.890625-18.667969-32.859375-18.667969s-26.183594 7.488281-32.863281 18.667969c-2.191406 3.671875-5.953125 6.226562-10.214844 6.554687-7.980469.609375-15.640625 4.921875-20.195312 12.59375-5.898438 9.929688-4.289063 22.839844 3.84375 31.042969 4.75 4.792969 10.746093 7.242187 16.789062 7.597656l85.332031.015625c7.925781-.492187 15.582031-4.625 20.246094-12.074218 6.417969-10.25 4.675781-23.878907-4.117187-32.183594zm0 0"/><path d="m458.105469 120.460938c13.269531 0 18.492187-16.367188 8.882812-25.28125-3.484375-3.234376-8.179687-4.347657-12.589843-4.320313-4.019532.023437-7.648438-2.230469-9.558594-5.765625-5.632813-10.449219-17.015625-17.339844-29.914063-16.425781-15.902343 1.125-28.613281 14.425781-29.074219 30.363281-.003906.152344 0 21.429688 20.925782 21.429688zm0 0"/><path d="m117.1875 133.527344 13.34375-7.917969c5.753906-3.414063 12.914062-3.414063 18.667969 0l13.347656 7.917969c5.753906 3.414062 12.914063 3.414062 18.667969 0l8.566406-5.082032-20.386719-43.382812c-10.832031-23.042969-42.984375-24.679688-56.101562-2.859375l-26.617188 44.296875 11.839844 7.027344c5.757813 3.417968 12.917969 3.417968 18.671875 0zm0 0"/></g></svg>