<?xml version="1.0" encoding="iso-8859-1"?>
<!-- Generator: Adobe Illustrator 19.0.0, SVG Export Plug-In . SVG Version: 6.00 Build 0)  -->
<svg version="1.1" id="Capa_1" xmlns="http://www.w3.org/2000/svg" xmlns:xlink="http://www.w3.org/1999/xlink" x="0px" y="0px"
	 viewBox="0 0 512 512" style="enable-background:new 0 0 512 512;" xml:space="preserve">
<path style="fill:#FEDB41;" d="M436.959,478.546H75.003c-45.319,0-74.431-48.921-52.523-88.839L203.459,64.666
	c11.105-20.709,31.814-31.212,52.523-31.212s41.418,10.504,52.523,31.212l180.978,325.041
	C511.39,429.625,482.579,478.546,436.959,478.546z"/>
<path style="fill:#FCBF29;" d="M436.959,478.546H255.981V33.455c20.709,0,41.418,10.504,52.523,31.212l180.978,325.041
	C511.39,429.625,482.579,478.546,436.959,478.546z"/>
<path style="fill:#57555C;" d="M444.163,405.914L255.981,285.263l-76.833-49.221c-3.301-2.402-7.803-3-11.705-2.101
	c-4.202,1.202-7.503,3.602-9.604,7.503L65.1,411.318c-2.702,4.801-2.702,10.203,0,14.706c2.7,4.801,7.803,7.503,12.906,7.503H436.06
	c4.801,0,9.905-2.402,12.604-6.904C453.166,419.721,451.065,410.417,444.163,405.914z"/>
<path style="fill:#FD4E26;" d="M502.687,382.505L321.709,57.464c-13.206-24.611-37.816-39.017-65.728-39.017
	s-52.523,14.405-65.728,39.017L9.275,382.505c-27.313,50.121,9.004,111.048,65.728,111.048h361.956
	C493.984,493.553,530,432.325,502.687,382.505z M436.959,463.54H75.003c-34.215,0-55.824-36.617-39.317-66.63L216.364,71.872
	c8.405-15.608,24.01-23.411,39.617-23.411s31.212,7.803,39.617,23.411l180.677,325.039
	C492.782,426.923,471.174,463.54,436.959,463.54z"/>
<path style="fill:#FD3018;" d="M436.959,493.553H255.981V463.54h180.978c34.215,0,55.824-36.617,39.317-66.63L295.598,71.872
	c-8.405-15.608-24.01-23.411-39.617-23.411V18.449c27.912,0,52.523,14.405,65.728,39.017l180.978,325.041
	C530,432.325,493.984,493.553,436.959,493.553z"/>
<path style="fill:#3C3A41;" d="M448.664,426.623c-2.7,4.503-7.803,6.904-12.604,6.904H255.982V285.263l188.182,120.651
	C451.065,410.417,453.166,419.721,448.664,426.623z"/>
<g>
</g>
<g>
</g>
<g>
</g>
<g>
</g>
<g>
</g>
<g>
</g>
<g>
</g>
<g>
</g>
<g>
</g>
<g>
</g>
<g>
</g>
<g>
</g>
<g>
</g>
<g>
</g>
<g>
</g>
</svg>
